<svg xmlns="http://www.w3.org/2000/svg" viewBox="0 0 134.42 35.43"><defs><style>.cls-1{fill:#fff;}</style></defs><title>Asset 1</title><g id="Layer_2" data-name="Layer 2"><g id="Layer_1-2" data-name="Layer 1"><path class="cls-1" d="M5.33,31.39a1.92,1.92,0,0,0-2-1.36A2.3,2.3,0,0,0,1,32.5,2.3,2.3,0,0,0,3.36,35a2,2,0,0,0,2.06-1.8H6a2.49,2.49,0,0,1-2.67,2.26,2.93,2.93,0,1,1,0-5.86,2.4,2.4,0,0,1,2.58,1.82Z"/><path class="cls-1" d="M9.48,29.57a2.93,2.93,0,1,1,0,5.86,2.93,2.93,0,1,1,0-5.86Zm0,5.4a2.3,2.3,0,0,0,2.41-2.47A2.3,2.3,0,0,0,9.48,30,2.3,2.3,0,0,0,7.07,32.5,2.3,2.3,0,0,0,9.48,35Z"/><path class="cls-1" d="M13.29,29.69h.61v5.16h3.59v.46h-4.2Z"/><path class="cls-1" d="M18,29.69h.61v5.16h3.59v.46H18Z"/><path class="cls-1" d="M22.61,29.69H27v.46H23.22v2h3.57v.45H23.22v2.22h3.85v.46H22.61Z"/><path class="cls-1" d="M33.24,35.31H32.8l-.08-1h0a2.38,2.38,0,0,1-2.21,1.14,2.93,2.93,0,1,1,0-5.86,2.46,2.46,0,0,1,2.67,1.87h-.61A1.94,1.94,0,0,0,30.49,30a2.3,2.3,0,0,0-2.42,2.47A2.3,2.3,0,0,0,30.49,35a2,2,0,0,0,2.21-2.06H30.52v-.46h2.72Z"/><path class="cls-1" d="M34.26,29.69h4.42v.46H34.87v2h3.57v.45H34.87v2.22h3.85v.46H34.26Z"/><path class="cls-1" d="M21.54,7.36H27.4l5.93,14.79L39.49,7.36h5.85L36.26,27.25H30.62Z"/><path class="cls-1" d="M46.72,0h5.19V4.21H46.72Zm0,7.36h5.19V27.25H46.72Z"/><path class="cls-1" d="M59.38,21c.15,3,3.6,3.46,5.49,3.46,2.58,0,5.4-.68,5.4-2.55,0-1.54-.87-2.07-6.46-2.82-6.16-.83-9.39-1.54-9.39-6.08,0-5.67,6.61-6.42,10-6.42,3.08,0,10.47.45,10.78,6.83H69.74c-.41-3-3.87-3.3-5.64-3.3-2.92,0-4.49,1.24-4.49,2.29,0,1.61.48,1.88,5.48,2.59,6.53.94,10.8,1.57,10.8,6.19,0,5.07-4.84,6.8-11,6.8-4.24,0-11-.9-11.14-7Z"/><path class="cls-1" d="M78.48,0h5.19V4.21H78.48Zm0,7.36h5.19V27.25H78.48Z"/><path class="cls-1" d="M98.71,6.61c8.91,0,12.32,5.22,12.32,10.7S107.62,28,98.71,28,86.4,22.79,86.4,17.31,89.82,6.61,98.71,6.61Zm0,17.42c5,0,6.92-3.27,6.92-6.72s-1.88-6.72-6.92-6.72-6.9,3.26-6.9,6.72S93.69,24,98.71,24Z"/><path class="cls-1" d="M112.87,7.36h5.18v3h.07A9.59,9.59,0,0,1,126,6.83c4.28,0,8.45,1.54,8.45,6.91V27.25h-5.18V15.39c0-2.14-.72-4.57-5-4.57-2.7,0-6.19,1.49-6.19,5.74V27.25h-5.18Z"/><path class="cls-1" d="M4.34,7.42A4.36,4.36,0,0,0,0,11.77V27.2H15.53a4.34,4.34,0,0,0,4.34-4.35V7.42Zm11.32,14a6.76,6.76,0,0,1-1.06-.09H11c-2,0-2.11-.7-2.11-1.87V16.19H7.72a2.65,2.65,0,0,1,.06.67v2.92a.31.31,0,0,0,.36.35,4.58,4.58,0,0,0,.53,0v1.13a5.19,5.19,0,0,1-1.15.14c-1,0-1.17-.56-1.21-.8a3.89,3.89,0,0,1-2.9.86c-1.61,0-2.52-.72-2.52-1.94,0-1.69,1.75-1.85,2.77-1.94,2.31-.22,2.55-.3,2.55-.78,0-.71-.81-.89-1.74-.89s-1.63.34-1.69,1H1.21c.23-1.62,1.43-2.12,3.26-2.12A6.88,6.88,0,0,1,6.41,15H8.93v-1.9h1.61V15h1.67v1.17H10.54V19c0,.71,0,1.09.57,1.09h1.34a3.26,3.26,0,0,1-.61-2c0-2,1.43-3.32,3.82-3.32.93,0,3.05.31,3.39,2.4H17.37A1.64,1.64,0,0,0,15.66,16a2,2,0,0,0-2.15,2.09,1.89,1.89,0,0,0,2,2.08,1.72,1.72,0,0,0,1.93-1.36h1.67C18.71,21.39,16.09,21.43,15.66,21.43Zm-13.09-2c0,.81.75,1,1.29,1,.86,0,2.32-.33,2.32-1.69v-.59a7.68,7.68,0,0,1-2.11.39C2.86,18.64,2.57,18.92,2.57,19.44Z"/></g></g></svg>