<svg xmlns="http://www.w3.org/2000/svg" viewBox="0 0 108.29 28.67"><defs><style>.cls-1{fill:#003361;}.cls-2{fill:#0094c3;}</style></defs><title>Asset 2</title><g id="Layer_2" data-name="Layer 2"><g id="Layer_1-2" data-name="Layer 1"><path class="cls-1" d="M17.35,5.93h4.72l4.78,11.92,5-11.92h4.72L29.21,22H24.67Z"/><path class="cls-1" d="M37.64,0h4.18V3.39H37.64Zm0,5.93h4.18V22H37.64Z"/><path class="cls-1" d="M47.84,16.94c.12,2.42,2.9,2.78,4.42,2.78,2.08,0,4.35-.54,4.35-2,0-1.25-.7-1.67-5.2-2.27-5-.67-7.56-1.25-7.56-4.9,0-4.57,5.32-5.18,8-5.18,2.48,0,8.44.37,8.68,5.51H56.18c-.33-2.39-3.11-2.66-4.54-2.66C49.29,8.17,48,9.16,48,10c0,1.3.39,1.52,4.42,2.09,5.26.76,8.7,1.27,8.7,5,0,4.08-3.9,5.47-8.86,5.47-3.41,0-8.83-.72-9-5.62Z"/><path class="cls-1" d="M63.22,0H67.4V3.39H63.22Zm0,5.93H67.4V22H63.22Z"/><path class="cls-1" d="M79.53,5.32c7.17,0,9.92,4.21,9.92,8.62s-2.75,8.62-9.92,8.62-9.92-4.2-9.92-8.62S72.36,5.32,79.53,5.32Zm0,14c4,0,5.56-2.63,5.56-5.42s-1.51-5.41-5.56-5.41S74,11.16,74,13.94,75.48,19.36,79.53,19.36Z"/><path class="cls-1" d="M90.93,5.93H95.1V8.35h.06a7.71,7.71,0,0,1,6.32-2.85c3.45,0,6.81,1.24,6.81,5.57V22h-4.17V12.4c0-1.72-.58-3.69-4-3.69-2.17,0-5,1.21-5,4.63V22H90.93Z"/><path class="cls-2" d="M2.07,15.66c0,.65.6.78,1,.78.7,0,1.87-.27,1.87-1.36V14.6a6.09,6.09,0,0,1-1.7.31C2.3,15,2.07,15.24,2.07,15.66ZM3.5,6A3.5,3.5,0,0,0,0,9.48V21.91H12.51a3.5,3.5,0,0,0,3.5-3.5V6Zm9.12,11.28a5.54,5.54,0,0,1-.86-.07H8.89c-1.58,0-1.7-.56-1.7-1.51V13h-1a2.09,2.09,0,0,1,0,.54v2.36a.25.25,0,0,0,.28.28,2.9,2.9,0,0,0,.43,0v.91a4,4,0,0,1-.92.11c-.85,0-.94-.44-1-.64a3.1,3.1,0,0,1-2.33.69c-1.3,0-2-.58-2-1.56,0-1.36,1.41-1.48,2.23-1.56C4.81,14,5,13.89,5,13.51c0-.57-.65-.71-1.4-.71s-1.31.27-1.36.82H1c.19-1.3,1.16-1.71,2.63-1.71a5.66,5.66,0,0,1,1.57.19h2V10.57h1.3V12.1H9.84V13H8.49v2.27c0,.57,0,.88.46.88H10a2.66,2.66,0,0,1-.49-1.6c0-1.6,1.15-2.68,3.08-2.68a2.54,2.54,0,0,1,2.72,1.94H14a1.3,1.3,0,0,0-1.37-.94,1.6,1.6,0,0,0-1.73,1.68,1.53,1.53,0,0,0,1.58,1.68A1.38,1.38,0,0,0,14,15.17h1.35A2.58,2.58,0,0,1,12.62,17.26Z"/><path class="cls-1" d="M4.88,26.84a2.09,2.09,0,0,1-2.23,1.83A2.22,2.22,0,0,1,.26,26.31a2.27,2.27,0,0,1,2.39-2.37,2,2,0,0,1,2.19,1.64H4.37a1.55,1.55,0,0,0-1.72-1.21A1.75,1.75,0,0,0,.76,26.31a1.76,1.76,0,0,0,1.89,1.93,1.59,1.59,0,0,0,1.76-1.4Z"/><path class="cls-1" d="M7.92,23.94a2.37,2.37,0,1,1,0,4.73,2.37,2.37,0,1,1,0-4.73Zm0,4.3a1.94,1.94,0,1,0,0-3.87,1.94,1.94,0,1,0,0,3.87Z"/><path class="cls-1" d="M11.11,24.06h.47v4.07h2.85v.43H11.11Z"/><path class="cls-1" d="M15,24.06h.46v4.07h2.86v.43H15Z"/><path class="cls-1" d="M18.86,24.06h3.57v.43H19.32V26h3v.43h-3v1.69h3.17v.43H18.86Z"/><path class="cls-1" d="M27.31,27.71h0a2,2,0,0,1-1.88,1,2.18,2.18,0,0,1-2.35-2.36,2.26,2.26,0,0,1,2.4-2.37,2,2,0,0,1,2.18,1.54h-.51a1.55,1.55,0,0,0-1.67-1.11,1.76,1.76,0,0,0-1.9,1.94,1.7,1.7,0,0,0,1.82,1.93,1.71,1.71,0,0,0,1.91-1.57H25.65v-.43h2.08v2.32h-.36Z"/><path class="cls-1" d="M28.73,24.06h3.58v.43H29.2V26h3v.43h-3v1.69h3.16v.43H28.73Z"/></g></g></svg>